<?xml version="1.0" standalone="no"?>
<!DOCTYPE svg PUBLIC "-//W3C//DTD SVG 20010904//EN"
 "http://www.w3.org/TR/2001/REC-SVG-20010904/DTD/svg10.dtd">
<svg version="1.0" xmlns="http://www.w3.org/2000/svg"
 width="2400.000000pt" height="2400.000000pt" viewBox="0 0 2400.000000 2400.000000"
 preserveAspectRatio="xMidYMid meet">
<metadata>
Created by potrace 1.14, written by Peter Selinger 2001-2017
</metadata>
<g transform="translate(0.000000,2400.000000) scale(0.100000,-0.100000)"
fill="#000000" stroke="none">
<path d="M11380 23979 c-2532 -140 -4874 -1024 -6830 -2577 -843 -670 -1556
-1407 -2196 -2272 -325 -438 -590 -848 -853 -1320 -116 -206 -384 -744 -475
-950 -527 -1194 -859 -2485 -975 -3790 -35 -397 -45 -625 -45 -1075 0 -849 69
-1552 234 -2375 322 -1607 949 -3085 1883 -4435 145 -211 455 -624 603 -803
951 -1160 2181 -2182 3484 -2896 1624 -890 3361 -1381 5223 -1477 261 -13
1129 -7 1352 10 1409 108 2621 394 3855 911 2971 1245 5329 3649 6513 6640
565 1426 847 2899 847 4425 0 2184 -587 4298 -1718 6190 -265 444 -540 839
-881 1265 -827 1036 -1719 1852 -2816 2576 -1781 1176 -3819 1841 -5985 1954
-224 11 -1005 11 -1220 -1z m1135 -509 c1456 -69 2802 -382 4108 -956 245
-108 739 -354 962 -480 1147 -647 2121 -1427 2966 -2374 723 -810 1256 -1593
1728 -2540 242 -486 422 -917 591 -1415 417 -1231 613 -2417 613 -3710 0 -609
-32 -1049 -119 -1660 -208 -1463 -738 -2955 -1502 -4228 -695 -1159 -1629
-2231 -2666 -3059 -837 -670 -1690 -1186 -2626 -1590 -2459 -1062 -5183 -1235
-7765 -493 -927 266 -1888 684 -2709 1177 -1295 778 -2470 1849 -3346 3049
-974 1333 -1622 2761 -1970 4341 -115 521 -196 1091 -242 1708 -18 239 -18
1271 0 1510 80 1068 250 1933 566 2885 171 514 352 952 593 1435 482 967 1028
1777 1738 2580 173 195 732 753 930 927 709 625 1370 1086 2215 1545 1134 617
2419 1044 3706 1232 388 57 898 105 1254 119 198 8 788 6 975 -3z"/>
<path d="M11490 23309 c-2104 -99 -4058 -744 -5815 -1921 -1111 -744 -2143
-1752 -2917 -2848 -1180 -1673 -1877 -3587 -2042 -5610 -49 -598 -49 -1268 -1
-1870 185 -2283 1062 -4447 2533 -6248 409 -502 959 -1055 1487 -1498 1791
-1501 3985 -2404 6310 -2598 607 -51 1311 -51 1910 -1 1956 165 3846 838 5439
1937 605 418 1102 832 1616 1347 444 445 785 844 1156 1353 1105 1514 1809
3280 2058 5163 71 536 90 837 90 1470 1 521 -5 662 -39 1045 -189 2078 -953
4073 -2199 5735 -546 729 -1218 1433 -1911 2001 -334 273 -853 641 -1239 879
-1433 880 -2996 1418 -4661 1605 -562 62 -1225 85 -1775 59z m480 -7018 c880
-120 1594 -442 2211 -996 65 -59 119 -109 119 -112 0 -6 -523 -578 -532 -581
-5 -2 -48 34 -96 80 -710 684 -1718 1010 -2752 892 -463 -53 -875 -177 -1285
-388 -258 -132 -485 -285 -693 -465 l-82 -72 2 473 3 473 80 48 c317 188 773
383 1150 491 331 94 563 136 990 180 22 2 195 2 385 1 283 -3 373 -7 500 -24z
m-8798 -2128 l3 -1818 2308 -3 2307 -2 0 -340 0 -340 -2307 -2 -2308 -3 -3
-1962 -2 -1963 -380 0 -380 0 0 4125 0 4125 380 0 380 0 2 -1817z m16578 1793
c0 -6 -27 -68 -490 -1151 -427 -999 -1038 -2429 -1047 -2452 -4 -10 337 -13
1686 -13 l1691 0 0 -350 0 -350 -1841 -2 -1841 -3 -110 -260 c-61 -143 -422
-989 -803 -1880 -381 -891 -704 -1647 -718 -1680 l-25 -60 -397 -3 c-317 -2
-396 0 -392 10 3 7 115 265 250 573 134 308 310 711 390 895 136 315 601 1375
1254 2865 157 358 469 1071 692 1585 224 514 540 1238 702 1607 l294 673 353
0 c193 0 352 -2 352 -4z m-5352 -5578 l-3 -1963 -110 -57 c-1043 -541 -2274
-778 -3386 -653 -693 79 -1345 284 -1896 597 l-143 81 0 485 0 484 84 -80
c228 -216 533 -419 837 -558 371 -170 755 -273 1229 -331 205 -25 742 -25 955
0 580 68 1070 206 1573 442 l122 58 -2 1386 -3 1386 -997 3 -998 2 0 340 0
340 1370 0 1370 0 -2 -1962z"/>
</g>
</svg>
